<svg width="20" height="20" viewBox="0 0 20 20" fill="none" xmlns="http://www.w3.org/2000/svg">
<path d="M13.6444 3.03418C10.1556 3.03418 7.28857 5.86177 7.28857 9.37901V19.31C7.28857 19.6894 7.59946 19.9997 7.97942 19.9997H11.5718C11.9518 19.9997 12.2627 19.6894 12.2627 19.31V9.65487C12.2627 8.89625 12.8844 8.27556 13.6444 8.27556C14.4043 8.27556 15.0261 8.89625 15.0261 9.65487V19.31C15.0261 19.6894 15.3369 19.9997 15.7169 19.9997H19.3093C19.6893 19.9997 20.0001 19.6894 20.0001 19.31V9.37901C20.0001 5.89625 17.1677 3.03418 13.6444 3.03418Z" fill="#505F79"/>
<path d="M4.28325 6.27637H0.690846C0.310881 6.27637 0 6.58671 0 6.96602V19.3108C0 19.6902 0.310881 20.0005 0.690846 20.0005H4.28325C4.66321 20.0005 4.97409 19.6902 4.97409 19.3108V6.96602C4.97409 6.58671 4.66321 6.27637 4.28325 6.27637Z" fill="#505F79"/>
<path d="M2.48705 0C1.10535 0 0 1.10345 0 2.48276C0 3.86207 1.10535 4.96552 2.48705 4.96552C3.86874 4.96552 4.97409 3.86207 4.97409 2.48276C4.97409 1.10345 3.86874 0 2.48705 0Z" fill="#505F79"/>
</svg>
