<svg width="20" height="20" viewBox="0 0 20 20" fill="none" xmlns="http://www.w3.org/2000/svg">
<path d="M19.7662 0.370009C19.4329 -0.028661 18.8662 -0.128329 18.4329 0.170674L16.4996 1.49957C15.5996 0.536121 14.3329 0.0045615 12.9662 0.0045615C10.2662 0.0045615 8.03289 2.19725 8.03289 4.92149C8.03289 5.32016 8.06622 5.68561 8.16622 6.05106C5.83289 5.55272 4.43289 3.85837 3.89955 0.801902C3.83289 0.403232 3.53289 0.104229 3.13289 0.0045615C2.76622 -0.095106 2.36622 0.0710066 2.13289 0.370009C2.06622 0.436454 -3.43378 8.07763 4.53289 14.556C3.76622 16.1839 1.46622 17.5793 0.566219 18.0444C0.132886 18.2437 -0.0671141 18.7088 0.0328859 19.1739C0.132886 19.6391 0.532886 19.9381 0.999553 19.9381H2.73289C12.8662 19.9381 17.4662 14.9215 17.5662 3.69226L19.6662 1.69891C20.0662 1.36668 20.0996 0.768679 19.7662 0.370009Z" fill="#505F79"/>
</svg>
